<mxfile host="app.diagrams.net" modified="2023-08-16T17:06:00.638Z" agent="Mozilla/5.0 (Windows NT 10.0; Win64; x64; rv:109.0) Gecko/20100101 Firefox/116.0" etag="oCfrew8KCQ9exeertFB2" version="21.6.5" type="device">
  <diagram id="C5RBs43oDa-KdzZeNtuy" name="Page-1">
    <mxGraphModel dx="1434" dy="774" grid="0" gridSize="10" guides="1" tooltips="1" connect="1" arrows="1" fold="1" page="1" pageScale="1" pageWidth="827" pageHeight="1169" math="0" shadow="0">
      <root>
        <mxCell id="WIyWlLk6GJQsqaUBKTNV-0" />
        <mxCell id="WIyWlLk6GJQsqaUBKTNV-1" parent="WIyWlLk6GJQsqaUBKTNV-0" />
        <mxCell id="cy5oTNFvUanueQ7nINdq-9" style="edgeStyle=orthogonalEdgeStyle;rounded=0;orthogonalLoop=1;jettySize=auto;html=1;entryX=0.5;entryY=0;entryDx=0;entryDy=0;" edge="1" parent="WIyWlLk6GJQsqaUBKTNV-1" source="cy5oTNFvUanueQ7nINdq-1" target="cy5oTNFvUanueQ7nINdq-8">
          <mxGeometry relative="1" as="geometry" />
        </mxCell>
        <mxCell id="cy5oTNFvUanueQ7nINdq-1" value="&lt;b&gt;&lt;font style=&quot;font-size: 14px;&quot;&gt;Single &lt;/font&gt;&lt;font style=&quot;font-size: 14px;&quot;&gt;Kafka Instance&lt;/font&gt;&lt;/b&gt;" style="shape=process;whiteSpace=wrap;html=1;backgroundOutline=1;" vertex="1" parent="WIyWlLk6GJQsqaUBKTNV-1">
          <mxGeometry x="215" y="340" width="381" height="120" as="geometry" />
        </mxCell>
        <mxCell id="cy5oTNFvUanueQ7nINdq-2" value="&lt;b&gt;Data source API&lt;br&gt;&lt;/b&gt;" style="ellipse;shape=cloud;whiteSpace=wrap;html=1;" vertex="1" parent="WIyWlLk6GJQsqaUBKTNV-1">
          <mxGeometry x="300" y="30" width="190" height="140" as="geometry" />
        </mxCell>
        <mxCell id="cy5oTNFvUanueQ7nINdq-6" style="edgeStyle=orthogonalEdgeStyle;rounded=0;orthogonalLoop=1;jettySize=auto;html=1;exitX=0.5;exitY=0;exitDx=0;exitDy=0;entryX=0.55;entryY=0.95;entryDx=0;entryDy=0;entryPerimeter=0;" edge="1" parent="WIyWlLk6GJQsqaUBKTNV-1" source="cy5oTNFvUanueQ7nINdq-4" target="cy5oTNFvUanueQ7nINdq-2">
          <mxGeometry relative="1" as="geometry" />
        </mxCell>
        <mxCell id="cy5oTNFvUanueQ7nINdq-7" style="edgeStyle=orthogonalEdgeStyle;rounded=0;orthogonalLoop=1;jettySize=auto;html=1;entryX=0.5;entryY=0;entryDx=0;entryDy=0;" edge="1" parent="WIyWlLk6GJQsqaUBKTNV-1" source="cy5oTNFvUanueQ7nINdq-4" target="cy5oTNFvUanueQ7nINdq-1">
          <mxGeometry relative="1" as="geometry" />
        </mxCell>
        <mxCell id="cy5oTNFvUanueQ7nINdq-4" value="&lt;div&gt;&lt;b&gt;&lt;font style=&quot;font-size: 14px;&quot;&gt;API Client and Event producer&lt;/font&gt;&lt;br&gt;&lt;/b&gt;&lt;/div&gt;" style="rounded=0;whiteSpace=wrap;html=1;" vertex="1" parent="WIyWlLk6GJQsqaUBKTNV-1">
          <mxGeometry x="260" y="210" width="290" height="90" as="geometry" />
        </mxCell>
        <mxCell id="cy5oTNFvUanueQ7nINdq-16" style="edgeStyle=orthogonalEdgeStyle;rounded=0;orthogonalLoop=1;jettySize=auto;html=1;entryX=0.5;entryY=0;entryDx=0;entryDy=0;" edge="1" parent="WIyWlLk6GJQsqaUBKTNV-1" source="cy5oTNFvUanueQ7nINdq-8" target="cy5oTNFvUanueQ7nINdq-14">
          <mxGeometry relative="1" as="geometry" />
        </mxCell>
        <mxCell id="cy5oTNFvUanueQ7nINdq-8" value="&lt;b&gt;&lt;font style=&quot;font-size: 14px;&quot;&gt;Event Consumer&lt;/font&gt;&lt;/b&gt;" style="rounded=0;whiteSpace=wrap;html=1;" vertex="1" parent="WIyWlLk6GJQsqaUBKTNV-1">
          <mxGeometry x="300" y="500" width="210" height="90" as="geometry" />
        </mxCell>
        <mxCell id="cy5oTNFvUanueQ7nINdq-14" value="&lt;font style=&quot;font-size: 14px;&quot;&gt;&lt;b&gt;Stdout or Log file&lt;/b&gt;&lt;br&gt;&lt;/font&gt;" style="ellipse;whiteSpace=wrap;html=1;" vertex="1" parent="WIyWlLk6GJQsqaUBKTNV-1">
          <mxGeometry x="300" y="630" width="210" height="80" as="geometry" />
        </mxCell>
      </root>
    </mxGraphModel>
  </diagram>
</mxfile>
